HIERARCHY
ROOT joint_0
{
	OFFSET 0.000000 0.000000 0.000000
	CHANNELS 6 Xposition Yposition Zposition Zrotation Yrotation Xrotation 
	JOINT joint_1
	{
		OFFSET 4.520508 -1.939880 86.268921
		CHANNELS 3 Zrotation Yrotation Xrotation
		JOINT joint_2
		{
			OFFSET -4.459717 -0.438538 78.934082
			CHANNELS 3 Zrotation Yrotation Xrotation
			JOINT joint_3
			{
				OFFSET -5.197754 -0.781128 78.796997
				CHANNELS 3 Zrotation Yrotation Xrotation
				JOINT joint_4
				{
					OFFSET 2.952026 -3.710571 109.812988
					CHANNELS 3 Zrotation Yrotation Xrotation
					JOINT joint_5
					{
						OFFSET 24.716797 -5.488037 87.903931
						CHANNELS 3 Zrotation Yrotation Xrotation
						End Site
						{
							OFFSET 0.000000 0.000000 0.000000
						}
					}
				}
				JOINT joint_6
				{
					OFFSET -3.154419 -25.484680 60.934937
					CHANNELS 3 Zrotation Yrotation Xrotation
					JOINT joint_7
					{
						OFFSET -28.997192 -144.472229 -32.671997
						CHANNELS 3 Zrotation Yrotation Xrotation
						JOINT joint_8
						{
							OFFSET 19.867676 -18.614380 -249.897949
							CHANNELS 3 Zrotation Yrotation Xrotation
							JOINT joint_9
							{
								OFFSET 5.281982 -13.816650 -264.993042
								CHANNELS 3 Zrotation Yrotation Xrotation
								End Site
								{
									OFFSET 0.000000 0.000000 0.000000
								}
							}
						}
					}
				}
				JOINT joint_10
				{
					OFFSET 6.494995 21.336792 62.257935
					CHANNELS 3 Zrotation Yrotation Xrotation
					JOINT joint_11
					{
						OFFSET 31.106567 145.200745 -27.007935
						CHANNELS 3 Zrotation Yrotation Xrotation
						JOINT joint_12
						{
							OFFSET 29.119141 24.684326 -248.460083
							CHANNELS 3 Zrotation Yrotation Xrotation
							JOINT joint_13
							{
								OFFSET 21.220093 31.248413 -262.703979
								CHANNELS 3 Zrotation Yrotation Xrotation
								End Site
								{
									OFFSET 0.000000 0.000000 0.000000
								}
							}
						}
					}
				}
			}
		}
	}
	JOINT joint_14
	{
		OFFSET -15.458496 -88.861694 -109.593018
		CHANNELS 3 Zrotation Yrotation Xrotation
		JOINT joint_15
		{
			OFFSET -6.193359 6.837952 -506.710999
			CHANNELS 3 Zrotation Yrotation Xrotation
			JOINT joint_16
			{
				OFFSET -35.096680 13.289795 -435.677025
				CHANNELS 3 Zrotation Yrotation Xrotation
				JOINT joint_17
				{
					OFFSET 158.491211 -33.916565 -71.771002
					CHANNELS 3 Zrotation Yrotation Xrotation
					End Site
					{
						OFFSET 0.000000 0.000000 0.000000
					}
				}
			}
		}
	}
	JOINT joint_18
	{
		OFFSET 23.116943 86.574158 -110.082031
		CHANNELS 3 Zrotation Yrotation Xrotation
		JOINT joint_19
		{
			OFFSET -6.125854 -0.283569 -506.757019
			CHANNELS 3 Zrotation Yrotation Xrotation
			JOINT joint_20
			{
				OFFSET -63.240234 11.589966 -432.537994
				CHANNELS 3 Zrotation Yrotation Xrotation
				JOINT joint_21
				{
					OFFSET 156.074219 -41.487305 -73.077999
					CHANNELS 3 Zrotation Yrotation Xrotation
					End Site
					{
						OFFSET 0.000000 0.000000 0.000000
					}
				}
			}
		}
	}
}
MOTION
Frames: 9
Frame Time: 0.016667
-396.752075 830.541748 1140.645020 5.768005 -1.566988 0.359876 -0.377350 0.817764 0.048051 -0.389746 -0.160401 -0.014065 -0.383848 0.167782 0.031766 -0.110967 0.727159 0.552169 0.000000 0.000000 0.000000 0.198025 0.745788 -0.485677 0.031353 0.579541 0.531383 -0.040688 0.613991 -0.330619 0.000000 0.000000 0.000000 0.631730 0.571246 -0.171391 -0.013352 0.470120 -0.259354 0.220837 0.995179 1.278707 0.000000 0.000000 0.000000 -0.057520 0.310921 -2.421379 -0.055311 2.044872 0.197682 -0.091285 -0.206441 -0.085536 0.000000 0.000000 0.000000 -0.027721 1.824985 0.886412 -0.012223 -1.143342 -0.046850 0.005955 0.663501 0.179170 0.000000 0.000000 0.000000 
-396.554871 830.497620 1140.641968 5.771091 -1.547755 0.362547 -0.376166 0.816067 0.037866 -0.387708 -0.159513 -0.010572 -0.382170 0.167582 0.029808 -0.110782 0.721898 0.550354 0.000000 0.000000 0.000000 0.203018 0.740646 -0.478155 0.032509 0.575122 0.539613 -0.040757 0.613886 -0.333806 0.000000 0.000000 0.000000 0.636747 0.575503 -0.161919 -0.013454 0.477300 -0.267915 0.220548 0.996165 1.273258 0.000000 0.000000 0.000000 -0.059481 0.305388 -2.420242 -0.057305 2.035996 0.197180 -0.093119 -0.210301 -0.087193 0.000000 0.000000 0.000000 -0.029070 1.826614 0.887361 -0.013442 -1.168395 -0.047523 0.005447 0.665008 0.179333 0.000000 0.000000 0.000000 
-396.364807 830.456238 1140.640015 5.773889 -1.528688 0.365166 -0.374837 0.816221 0.028638 -0.385684 -0.160310 -0.008519 -0.380321 0.168472 0.028875 -0.110295 0.716516 0.547435 0.000000 0.000000 0.000000 0.203753 0.735122 -0.471224 0.033531 0.569526 0.546575 -0.040653 0.611206 -0.335745 0.000000 0.000000 0.000000 0.638896 0.580153 -0.154314 -0.013423 0.484877 -0.275762 0.220210 0.997024 1.267371 0.000000 0.000000 0.000000 -0.061184 0.300781 -2.418903 -0.059082 2.024553 0.195829 -0.094727 -0.212057 -0.088297 0.000000 0.000000 0.000000 -0.030275 1.827758 0.889372 -0.014475 -1.192926 -0.050538 0.004776 0.666904 0.179523 0.000000 0.000000 0.000000 
-396.181671 830.413513 1140.640015 5.777323 -1.509600 0.367844 -0.374047 0.816966 0.019278 -0.384250 -0.161113 -0.007470 -0.378983 0.168858 0.028206 -0.109893 0.712670 0.545146 0.000000 0.000000 0.000000 0.200167 0.729420 -0.463043 0.034138 0.563640 0.550923 -0.040207 0.603375 -0.335385 0.000000 0.000000 0.000000 0.638810 0.585914 -0.148676 -0.013029 0.493138 -0.281335 0.219749 0.997552 1.260428 0.000000 0.000000 0.000000 -0.062842 0.297818 -2.416739 -0.060878 2.008467 0.192729 -0.096341 -0.209906 -0.088566 0.000000 0.000000 0.000000 -0.031845 1.827179 0.893337 -0.015803 -1.215028 -0.057255 0.003244 0.669392 0.179468 0.000000 0.000000 0.000000 
-396.005615 830.372437 1140.640991 5.780055 -1.490291 0.370883 -0.373612 0.818039 0.008519 -0.382993 -0.161208 -0.004717 -0.378010 0.169078 0.026467 -0.109350 0.708093 0.542198 0.000000 0.000000 0.000000 0.194679 0.723170 -0.454508 0.034521 0.557224 0.553657 -0.039552 0.592347 -0.333727 0.000000 0.000000 0.000000 0.637857 0.592175 -0.143510 -0.012537 0.501921 -0.286647 0.219183 0.997682 1.252747 0.000000 0.000000 0.000000 -0.064210 0.295218 -2.414639 -0.062409 1.990154 0.188605 -0.097713 -0.206303 -0.088415 0.000000 0.000000 0.000000 -0.033097 1.825590 0.897987 -0.016778 -1.236270 -0.066341 0.001688 0.672454 0.179554 0.000000 0.000000 0.000000 
-395.834900 830.338196 1140.644043 5.782859 -1.470198 0.374061 -0.373460 0.818198 -0.001730 -0.382107 -0.162796 -0.003004 -0.377213 0.170537 0.026297 -0.108205 0.705804 0.537608 0.000000 0.000000 0.000000 0.189155 0.717380 -0.448056 0.034972 0.550731 0.556852 -0.038948 0.582155 -0.332245 0.000000 0.000000 0.000000 0.636870 0.598125 -0.140601 -0.012216 0.509962 -0.292326 0.218862 0.998676 1.246931 0.000000 0.000000 0.000000 -0.065584 0.291954 -2.413254 -0.063954 1.970704 0.184729 -0.099038 -0.201575 -0.088002 0.000000 0.000000 0.000000 -0.034403 1.822160 0.902190 -0.017820 -1.256180 -0.075645 0.000000 0.675734 0.179637 0.000000 0.000000 0.000000 
-395.668579 830.312683 1140.646973 5.785595 -1.448798 0.377789 -0.373748 0.814820 -0.012385 -0.381551 -0.161722 -0.000540 -0.376983 0.169076 0.024038 -0.107648 0.707971 0.536060 0.000000 0.000000 0.000000 0.185179 0.713110 -0.443410 0.035768 0.545038 0.563194 -0.038528 0.574571 -0.332572 0.000000 0.000000 0.000000 0.636691 0.604074 -0.136256 -0.012183 0.518583 -0.300225 0.219034 1.001787 1.244240 0.000000 0.000000 0.000000 -0.067031 0.287768 -2.413175 -0.065584 1.950016 0.181177 -0.100401 -0.197563 -0.087760 0.000000 0.000000 0.000000 -0.035231 1.816351 0.905603 -0.018396 -1.274516 -0.085734 -0.001398 0.678506 0.179719 0.000000 0.000000 0.000000 
-395.508545 830.293945 1140.651978 5.788688 -1.426405 0.381655 -0.375129 0.810020 -0.023261 -0.382008 -0.161192 0.002991 -0.377868 0.168135 0.021134 -0.106708 0.711881 0.533528 0.000000 0.000000 0.000000 0.183567 0.708995 -0.440148 0.036685 0.539577 0.570307 -0.038182 0.567943 -0.333884 0.000000 0.000000 0.000000 0.638386 0.609866 -0.132885 -0.012357 0.526632 -0.308963 0.219440 1.005734 1.243312 0.000000 0.000000 0.000000 -0.068794 0.282710 -2.413819 -0.067538 1.928174 0.177970 -0.102016 -0.193096 -0.087534 0.000000 0.000000 0.000000 -0.036150 1.808262 0.908545 -0.019078 -1.291172 -0.096111 -0.002982 0.681301 0.179721 0.000000 0.000000 0.000000 
-395.353790 830.280945 1140.656982 5.790783 -1.404811 0.385719 -0.376055 0.806181 -0.033852 -0.382073 -0.160618 0.005893 -0.378196 0.167094 0.020130 -0.105835 0.715964 0.531270 0.000000 0.000000 0.000000 0.182151 0.705340 -0.437718 0.037304 0.534995 0.575048 -0.037880 0.562504 -0.334077 0.000000 0.000000 0.000000 0.640438 0.614212 -0.131476 -0.012773 0.532768 -0.318006 0.219593 1.007720 1.242133 0.000000 0.000000 0.000000 -0.069819 0.276863 -2.414671 -0.068692 1.909115 0.173848 -0.102997 -0.189143 -0.087131 0.000000 0.000000 0.000000 -0.036836 1.799935 0.910200 -0.019574 -1.305870 -0.105017 -0.004245 0.683626 0.179749 0.000000 0.000000 0.000000 
